<?xml version="1.0" encoding="UTF-8"?>
<svg width="15px" height="21px" viewBox="0 0 15 21" version="1.1" xmlns="http://www.w3.org/2000/svg" xmlns:xlink="http://www.w3.org/1999/xlink">
    <!-- Generator: Sketch 52.6 (67491) - http://www.bohemiancoding.com/sketch -->
    <title>Shape</title>
    <desc>Created with Sketch.</desc>
    <g id="Symbols" stroke="none" stroke-width="1" fill="none" fill-rule="evenodd">
        <g id="Превью-проекта" transform="translate(-21.000000, -338.000000)" fill="$mainColor" fill-rule="nonzero">
            <g id="Group" transform="translate(21.000000, 330.000000)">
                <path d="M7.77635373,28.8626567 C8.07107015,28.458095 15,18.9103637 15,15.1060594 C14.9999999,11.1814912 11.6421356,8 7.5,8 C3.35786442,8 6.17226302e-08,11.1814912 0,15.1060594 C0,18.9103637 6.92892985,28.458095 7.22364627,28.8626567 C7.28636678,28.9486621 7.38966573,29 7.5,29 C7.61033427,29 7.71363322,28.9486621 7.77635373,28.8626567 Z M7.5,12.2 C9.09312909,12.2 10.3846154,13.3752525 10.3846154,14.825 C10.3846154,16.2747475 9.09312909,17.45 7.5,17.45 C5.90687091,17.45 4.61538462,16.2747475 4.61538462,14.825 C4.61719565,13.3759357 5.90762167,12.201648 7.5,12.2 Z" id="Shape"></path>
            </g>
        </g>
    </g>
</svg>