<?xml version="1.0" encoding="UTF-8"?>
<svg width="29px" height="19px" viewBox="0 0 29 19" version="1.1" xmlns="http://www.w3.org/2000/svg" xmlns:xlink="http://www.w3.org/1999/xlink">
    <!-- Generator: Sketch 52.6 (67491) - http://www.bohemiancoding.com/sketch -->
    <title>Shape</title>
    <desc>Created with Sketch.</desc>
    <g id="Page-1" stroke="none" stroke-width="1" fill="none" fill-rule="evenodd">
        <g id="Mobile-Copy" transform="translate(-323.000000, -29.000000)" fill="$mainColor" fill-rule="nonzero">
            <g id="Group-15" transform="translate(-5.000000, 0.000000)">
                <path d="M355.820678,29 L328,29 L328,47.5601741 L357,47.5601741 L357,29 L355.820678,29 Z M354.659851,30.1597389 L343.456295,41.3632953 C342.944965,41.8746248 342.053947,41.8746248 341.542617,41.3632953 L330.336885,30.1597389 L354.658764,30.1597389 L354.659851,30.1597389 Z M329.159739,30.6221113 L336.691514,38.1527986 L329.159739,45.6845738 L329.159739,30.6210234 L329.159739,30.6221113 Z M330.085572,46.4004352 L337.512905,38.9741897 L340.723402,42.1835984 C341.197742,42.6579382 341.828744,42.9201306 342.5,42.9201306 C343.171256,42.9201306 343.802258,42.6579382 344.276598,42.1835984 L347.487095,38.9731017 L354.91334,46.3993472 L330.084484,46.3993472 L330.085572,46.4004352 Z M355.840261,45.6856618 L348.308486,38.1527986 L355.840261,30.6199355 L355.840261,45.6856618 Z" id="Shape"></path>
            </g>
        </g>
    </g>
</svg>