<?xml version="1.0" encoding="UTF-8"?>
<svg width="20px" height="15px" viewBox="0 0 20 15" version="1.1" xmlns="http://www.w3.org/2000/svg" xmlns:xlink="http://www.w3.org/1999/xlink">
    <!-- Generator: Sketch 52.6 (67491) - http://www.bohemiancoding.com/sketch -->
    <title>ic-email</title>
    <desc>Created with Sketch.</desc>
    <g id="Page-1" stroke="none" stroke-width="1" fill="none" fill-rule="evenodd">
        <g id="Contacts-Copy" transform="translate(-154.000000, -472.000000)" fill="$mainColor" fill-rule="nonzero">
            <g id="ic-email" transform="translate(153.500000, 472.000000)">
                <path d="M20.4999725,0.32984293 L20.4999725,14.7172775 C20.5009998,14.7912209 20.47321,14.8625516 20.422718,14.915574 C20.3722261,14.9685964 20.3031691,14.9989659 20.2307425,15 L0.769257529,15 C0.696830925,14.9989659 0.627773943,14.9685964 0.577281983,14.915574 C0.526790023,14.8625516 0.499000226,14.7912209 0.5000275,14.7172775 L0.5000275,0.32984293 C0.5000275,-5.55111512e-16 0.700026953,-0.09816754 0.942333975,0.113874345 L10.5,8.43062825 L20.057666,0.113874345 C20.299973,-0.09816754 20.4999725,-1.17961196e-15 20.4999725,0.32984293 Z M3.23463537,0.35340314 L10.5,6.7382199 L17.7653647,0.34947644 C17.9999793,0.157068065 17.9461334,0 17.6461342,0 L3.35771195,0 C3.05386663,0 3.00002062,0.157068065 3.23463537,0.34947644 L3.23463537,0.35340314 Z" id="Shape"></path>
            </g>
        </g>
    </g>
</svg>