<?xml version="1.0" encoding="UTF-8"?>
<svg width="20px" height="13px" viewBox="0 0 20 13" version="1.1" xmlns="http://www.w3.org/2000/svg" xmlns:xlink="http://www.w3.org/1999/xlink">
    <!-- Generator: Sketch 52.6 (67491) - http://www.bohemiancoding.com/sketch -->
    <title>ic-mail</title>
    <desc>Created with Sketch.</desc>
    <g id="Page-1" stroke="none" stroke-width="1" fill="none" fill-rule="evenodd">
        <g id="ic-mail" fill="#FFFFFF" fill-rule="nonzero">
            <path d="M18.7457143,0.335714286 L0.48,0.335714286 L0.48,12.5214286 L19.52,12.5214286 L19.52,0.335714286 L18.7457143,0.335714286 Z M17.9835714,1.09714286 L10.6278571,8.45285714 C10.2921429,8.78857143 9.70714286,8.78857143 9.37142857,8.45285714 L2.01428571,1.09714286 L17.9828571,1.09714286 L17.9835714,1.09714286 Z M1.24142857,1.40071429 L6.18642857,6.345 L1.24142857,11.29 L1.24142857,1.4 L1.24142857,1.40071429 Z M1.84928571,11.76 L6.72571429,6.88428571 L8.83357143,8.99142857 C9.145,9.30285714 9.55928571,9.475 10,9.475 C10.4407143,9.475 10.855,9.30285714 11.1664286,8.99142857 L13.2742857,6.88357143 L18.15,11.7592857 L1.84857143,11.7592857 L1.84928571,11.76 Z M18.7585714,11.2907143 L13.8135714,6.345 L18.7585714,1.39928571 L18.7585714,11.2907143 Z" id="Shape"></path>
        </g>
    </g>
</svg>