<?xml version="1.0" encoding="UTF-8"?>
<svg width="18px" height="18px" viewBox="0 0 18 18" version="1.1" xmlns="http://www.w3.org/2000/svg" xmlns:xlink="http://www.w3.org/1999/xlink">
    <!-- Generator: Sketch 52.6 (67491) - http://www.bohemiancoding.com/sketch -->
    <title>Group</title>
    <desc>Created with Sketch.</desc>
    <g id="Page-1" stroke="none" stroke-width="1" fill="none" fill-rule="evenodd">
        <g id="Lot" transform="translate(-1254.000000, -223.000000)" fill="#9CA2BC">
            <g id="Group" transform="translate(1254.000000, 223.000000)">
                <path d="M15.75,3.48510638 L13.9875,3.48510638 L13.9875,0.785106383 C13.9875,0.421276596 13.6875,0.114893617 13.33125,0.114893617 L4.65,0.114893617 C4.29375,0.114893617 3.99375,0.421276596 3.99375,0.785106383 L3.99375,3.48510638 L2.25,3.48510638 C1.06875,3.48510638 0.09375,4.48085106 0.09375,5.68723404 L0.09375,11.6425532 C0.09375,12.8489362 1.06875,13.8446809 2.25,13.8446809 L2.75625,13.8446809 L1.78125,17.0234043 C1.725,17.2340426 1.7625,17.4446809 1.875,17.6170213 C2.00625,17.7893617 2.19375,17.8851064 2.4,17.8851064 L15.6,17.8851064 C15.80625,17.8851064 15.99375,17.7893617 16.125,17.6170213 C16.25625,17.4446809 16.275,17.2340426 16.21875,17.0234043 L15.24375,13.8446809 L15.75,13.8446809 C16.93125,13.8446809 17.90625,12.8489362 17.90625,11.6425532 L17.90625,5.68723404 C17.90625,4.46170213 16.93125,3.48510638 15.75,3.48510638 Z M5.30625,1.45531915 L12.69375,1.45531915 L12.69375,3.48510638 L5.30625,3.48510638 L5.30625,1.45531915 Z M3.28125,16.5446809 L5.11875,10.493617 L12.84375,10.493617 L14.68125,16.5446809 L3.28125,16.5446809 Z M16.6125,11.6425532 C16.6125,12.1212766 16.2375,12.5042553 15.76875,12.5042553 L14.86875,12.5042553 L13.9875,9.63191489 C13.89375,9.34468085 13.65,9.17234043 13.36875,9.17234043 L4.65,9.17234043 C4.36875,9.17234043 4.10625,9.36382979 4.03125,9.63191489 L3.15,12.5042553 L2.25,12.5042553 C1.78125,12.5042553 1.40625,12.1212766 1.40625,11.6425532 L1.40625,5.68723404 C1.40625,5.20851064 1.78125,4.82553191 2.25,4.82553191 L15.75,4.82553191 C16.21875,4.82553191 16.59375,5.20851064 16.59375,5.68723404 L16.59375,11.6425532 L16.6125,11.6425532 Z" id="Shape" fill-rule="nonzero"></path>
                <ellipse id="Oval" cx="3.80625" cy="7.06595745" rx="1" ry="1"></ellipse>
                <path d="M6.675,12.9446809 L11.30625,12.9446809 C11.6625,12.9446809 11.9625,12.6382979 11.9625,12.2744681 C11.9625,11.9106383 11.6625,11.6042553 11.30625,11.6042553 L6.675,11.6042553 C6.31875,11.6042553 6.01875,11.9106383 6.01875,12.2744681 C6.0375,12.6574468 6.31875,12.9446809 6.675,12.9446809 Z" id="Path"></path>
                <path d="M11.98125,14.0744681 L6.01875,14.0744681 C5.6625,14.0744681 5.3625,14.3808511 5.3625,14.7446809 C5.3625,15.1085106 5.6625,15.4148936 6.01875,15.4148936 L11.98125,15.4148936 C12.3375,15.4148936 12.6375,15.1085106 12.6375,14.7446809 C12.61875,14.3808511 12.3375,14.0744681 11.98125,14.0744681 Z" id="Path"></path>
            </g>
        </g>
    </g>
</svg>