<?xml version="1.0" encoding="UTF-8"?>
<svg width="20px" height="20px" viewBox="0 0 20 20" version="1.1" xmlns="http://www.w3.org/2000/svg" xmlns:xlink="http://www.w3.org/1999/xlink">
    <!-- Generator: Sketch 52.6 (67491) - http://www.bohemiancoding.com/sketch -->
    <title>ic-phone</title>
    <desc>Created with Sketch.</desc>
    <g id="Page-1" stroke="none" stroke-width="1" fill="none" fill-rule="evenodd">
        <g id="Mobile-Copy-5" transform="translate(-292.000000, -27.000000)" stroke="$mainColor" stroke-width="1.5">
            <g id="Header">
                <g id="ic-phone" transform="translate(293.000000, 28.000000)">
                    <path d="M17.963775,13.4764875 L17.963775,16.1861625 C17.9647875,16.4377125 17.9132625,16.6867875 17.8124625,16.9171875 C17.711775,17.1477 17.56395,17.3545875 17.37855,17.5246875 C17.19315,17.694675 16.9743375,17.8241625 16.7360625,17.904825 C16.4977875,17.985375 16.245225,18.0153 15.9946875,17.9926875 C13.2152625,17.690625 10.5454125,16.7409 8.19973125,15.219675 C6.01734375,13.8328875 4.1670675,11.9826 2.78028,9.8002575 C1.25379,7.44388875 0.3038175,4.7610675 0.007335,1.969155 C-0.015240375,1.7193825 0.014445,1.46764125 0.0945,1.2299625 C0.17454375,0.99228375 0.30321,0.7738875 0.47228625,0.58865625 C0.64137375,0.40343625 0.84717,0.2554425 1.07658,0.15411375 C1.30599,0.05277375 1.553985,0.00032625 1.80478125,9e-05 L4.5145125,9e-05 C4.9528575,-0.004226625 5.377815,0.1509975 5.710185,0.4368375 C6.042555,0.72266625 6.25964625,1.11961125 6.3209925,1.55365875 C6.43536,2.42083125 6.6474675,3.2722875 6.953265,4.09177125 C7.0747875,4.4150625 7.10109,4.7664225 7.029045,5.10420375 C6.95701125,5.441985 6.78965625,5.752035 6.5468025,5.99761125 L5.399685,7.14472875 C6.68550375,9.406035 8.55783,11.27835 10.819125,12.564225 L11.9662875,11.4170625 C12.211875,11.174175 12.521925,11.0068875 12.85965,10.934775 C13.1974875,10.862775 13.548825,10.8891 13.87215,11.0106 C14.6916,11.316375 15.543,11.52855 16.4102625,11.64285 C16.8490125,11.704725 17.249625,11.9257875 17.5361625,12.26385 C17.8225875,12.6019125 17.9748,13.0334625 17.963775,13.4764875 Z" id="Path"></path>
                </g>
            </g>
        </g>
    </g>
</svg>