<?xml version="1.0" encoding="UTF-8"?>
<svg width="18px" height="18px" viewBox="0 0 18 18" version="1.1" xmlns="http://www.w3.org/2000/svg" xmlns:xlink="http://www.w3.org/1999/xlink">
    <!-- Generator: Sketch 52.6 (67491) - http://www.bohemiancoding.com/sketch -->
    <title>Shape</title>
    <desc>Created with Sketch.</desc>
    <g id="Page-1" stroke="none" stroke-width="1" fill="none" fill-rule="evenodd">
        <g id="Lot" transform="translate(-1214.000000, -223.000000)" fill="#9CA2BC" fill-rule="nonzero">
            <path d="M1228.78588,223 C1227.0185,223 1225.57175,224.44675 1225.57175,226.214125 C1225.57175,226.502125 1225.61337,226.78 1225.68538,227.046063 L1219.73806,230.02 C1219.148,229.27075 1218.23619,228.785875 1217.21412,228.785875 C1215.44675,228.785875 1214,230.232625 1214,232 C1214,233.767375 1215.44675,235.214125 1217.21412,235.214125 C1218.23506,235.214125 1219.14744,234.72925 1219.7375,233.980562 L1225.68538,236.9545 C1225.61394,237.220562 1225.57175,237.497875 1225.57175,237.785875 C1225.57175,239.55325 1227.0185,241 1228.78588,241 C1230.55325,241 1232,239.55325 1232,237.785875 C1232,236.0185 1230.55325,234.57175 1228.78588,234.57175 C1227.76381,234.57175 1226.852,235.056625 1226.26194,235.805875 L1220.31462,232.831938 C1220.38663,232.565875 1220.42825,232.288 1220.42825,232 C1220.42825,231.712 1220.38663,231.434687 1220.31462,231.168625 L1226.2625,228.194688 C1226.85256,228.943375 1227.76437,229.42825 1228.78588,229.42825 C1230.55325,229.42825 1232,227.9815 1232,226.214125 C1232,224.44675 1230.55325,223 1228.78588,223 Z M1228.78588,224.285875 C1229.85856,224.285875 1230.71469,225.142 1230.71469,226.214687 C1230.71469,227.287375 1229.85856,228.1435 1228.78588,228.1435 C1227.71319,228.1435 1226.85706,227.287375 1226.85706,226.214687 C1226.85706,225.142 1227.71319,224.285875 1228.78588,224.285875 Z M1217.21412,230.071188 C1218.28681,230.071188 1219.14294,230.927312 1219.14294,232 C1219.14294,233.072688 1218.28681,233.928812 1217.21412,233.928812 C1216.14144,233.928812 1215.28531,233.072688 1215.28531,232 C1215.28531,230.927312 1216.14144,230.071188 1217.21412,230.071188 Z M1228.78588,235.857063 C1229.85856,235.857063 1230.71469,236.713188 1230.71469,237.785875 C1230.71469,238.858563 1229.85856,239.714687 1228.78588,239.714687 C1227.71319,239.714687 1226.85706,238.858563 1226.85706,237.785875 C1226.85706,236.713188 1227.71319,235.857063 1228.78588,235.857063 Z" id="Shape"></path>
        </g>
    </g>
</svg>