<?xml version="1.0" encoding="UTF-8"?>
<svg width="32px" height="32px" viewBox="0 0 32 32" version="1.1" xmlns="http://www.w3.org/2000/svg" xmlns:xlink="http://www.w3.org/1999/xlink">
    <!-- Generator: Sketch 52.6 (67491) - http://www.bohemiancoding.com/sketch -->
    <title>Group 5</title>
    <desc>Created with Sketch.</desc>
    <g id="Symbols" stroke="none" stroke-width="1" fill="none" fill-rule="evenodd">
        <g id="Footer" transform="translate(-1099.000000, -180.000000)">
            <g id="Group-7">
                <g transform="translate(1021.000000, 180.000000)">
                    <g id="Group-5" transform="translate(78.466667, 0.000000)">
                        <rect id="Rectangle" fill="#CCCDD5" x="0" y="0" width="31.5333333" height="31.5333333"></rect>
                        <path d="M22.5936333,11.9365611 C22.3349167,12.0655611 21.6218333,12.3249944 20.9739667,12.3894944 C21.4276167,12.1307778 22.0109833,11.4184111 22.2052,10.8350444 C21.8167667,11.0944778 20.8449667,11.4829111 20.3913167,11.4829111 C19.8731667,10.9647611 19.0955833,10.5111111 18.318,10.5111111 C16.69905,10.5111111 15.5323167,11.8713444 15.5323167,13.4910111 C15.5323167,13.6852278 15.5323167,13.9446611 15.5968167,14.1388778 C13.4597167,14.0743778 10.9334667,12.9083611 9.50873333,11.0292611 C8.60071667,12.5199278 9.3783,14.3330944 10.4138833,14.9809611 C10.08995,14.9809611 9.44208333,14.9164611 9.18336667,14.6570278 C9.18336667,15.6940444 9.6363,16.9897778 11.3856833,17.5079278 C11.06175,17.5724278 10.4138833,17.5724278 10.15445,17.5079278 C10.21895,18.3500111 11.4501833,19.4515278 12.7459167,19.4515278 C12.2929833,19.9696778 10.5436,20.9414778 8.6,20.6820444 C9.96095,21.4596278 11.4509,21.9777778 13.1357833,21.9777778 C17.79985,21.9777778 21.6218333,18.2202944 21.4276167,13.5562278 L21.4276167,13.4265111 C21.8167667,13.1025778 22.2052,12.5844278 22.5936333,11.9358444 L22.5936333,11.9365611 Z" id="Path" fill="#FFFFFF"></path>
                    </g>
                </g>
            </g>
        </g>
    </g>
</svg>