<?xml version="1.0" encoding="UTF-8"?>
<svg width="33px" height="32px" viewBox="0 0 33 32" version="1.1" xmlns="http://www.w3.org/2000/svg" xmlns:xlink="http://www.w3.org/1999/xlink">
    <!-- Generator: Sketch 52.6 (67491) - http://www.bohemiancoding.com/sketch -->
    <title>Group 4</title>
    <desc>Created with Sketch.</desc>
    <g id="Symbols" stroke="none" stroke-width="1" fill="none" fill-rule="evenodd">
        <g id="Footer" transform="translate(-1060.000000, -180.000000)">
            <g id="Group-7">
                <g transform="translate(1021.000000, 180.000000)">
                    <g id="Group-4" transform="translate(39.600000, 0.000000)">
                        <rect id="Rectangle" fill="#CCCDD5" x="0" y="0" width="31.5333333" height="31.5333333"></rect>
                        <path d="M20.7949365,11.5663175 L20.5813016,12.0229365 C20.5813016,12.0229365 19.5697778,14.1715714 18.3377937,15.5250476 C17.9419206,15.9632381 17.7405714,16.0949683 17.5221587,16.0949683 C17.3460635,16.0949683 17.2648413,15.9482222 17.2648413,15.5537143 L17.2648413,11.4666667 L13.4344286,11.4666667 L13.4344286,11.7799524 C13.4344286,12.2358889 14.1340317,12.3389524 14.1340317,13.5743492 L14.1340317,16.1229524 C14.1340317,16.6362222 14.1067302,16.8348413 13.863746,16.8348413 C13.2194286,16.8348413 11.6905397,14.6281905 10.8319048,12.1225873 L10.6189524,11.4666667 L8.1167619,11.4666667 C7.84442857,11.4666667 7.64444444,11.6516349 7.64444444,11.9226032 C7.64444444,12.4208571 8.23142857,14.7278413 10.5315873,17.818381 C12.0761746,19.8973968 14.1067302,21.0222222 15.9359365,21.0222222 C17.0518889,21.0222222 17.3221746,20.837254 17.3221746,20.3676667 L17.3221746,18.7725714 C17.3221746,18.3739683 17.4798413,18.2026508 17.7091746,18.2026508 C17.9664921,18.2026508 18.4196984,18.2845556 19.4810476,19.3281587 C19.4824127,19.3281587 21.1819365,21.0222222 21.1819365,21.0222222 L23.6117778,21.0222222 C23.8267778,21.0222222 24.0267619,20.923254 24.0267619,20.5669683 C24.0267619,20.0960159 23.4124762,19.2564921 22.4685238,18.2599841 C22.0828889,17.7480794 21.4535873,17.1918095 21.2536032,16.9344921 C20.9683016,16.6362222 21.053619,16.4655873 21.2536032,16.1523016 C21.2536032,16.1523016 23.4124762,13.1184127 23.6267937,12.1225873 C23.6991429,11.7663016 23.5414762,11.5663175 23.1694921,11.5663175 L20.795619,11.5663175 L20.7949365,11.5663175 Z" id="Path" fill="#FFFFFF"></path>
                    </g>
                </g>
            </g>
        </g>
    </g>
</svg>