<svg width="103" height="18" viewBox="0 0 103 18" fill="none" xmlns="http://www.w3.org/2000/svg">
<g clip-path="url(#clip0_2098_2)">
<path d="M9.38743 8.14031V8.06186C10.7939 7.50943 11.8051 5.72464 11.8051 4.19156C11.8051 2.16488 9.9375 0.347412 7.84921 0.347412H0C0.223981 1.84781 0.339265 3.36781 0.339265 4.89109V13.1056C0.339265 14.6289 0.227275 16.1457 0 17.6526H9.09757C11.9896 17.6526 14.3447 15.5311 14.3447 12.7167C14.3447 9.90222 12.095 8.33971 9.38743 8.14031ZM7.82286 0.540273C9.45001 0.540273 10.9421 2.26949 10.9421 4.18829C10.9421 6.1071 9.63117 8.21223 8.01719 8.21223H1.38012V0.540273H7.82286ZM9.04158 17.4597H1.38012V8.40509H9.04158C11.3407 8.40509 13.2116 10.0722 13.2116 12.7591C13.2116 15.4461 11.344 17.4597 9.04158 17.4597Z" fill="white"/>
<path d="M26.2649 4.89271C26.2649 3.36944 26.3769 1.8527 26.6041 0.345764H24.8848C25.112 1.84943 25.224 3.36944 25.224 4.89271V13.1073C25.224 14.6306 25.112 16.1473 24.8848 17.6542H26.6041C26.3802 16.1506 26.2649 14.6306 26.2649 13.1073V4.89271Z" fill="white"/>
<path d="M38.5279 0.345764H37.1445C37.3718 1.84943 37.4838 3.36944 37.4838 4.89271V13.1073C37.4838 14.6306 37.3718 16.1473 37.1445 17.6542H38.8639C38.6399 16.1506 38.5246 14.6306 38.5246 13.1073V0.345764H38.5279ZM47.4839 13.1073L45.5866 9.85154H46.0445C48.6038 9.85154 50.6855 7.59604 50.6855 5.10519C50.6855 2.61434 48.6038 0.345764 46.0445 0.345764H38.5279V0.528819H46.0148C48.0241 0.528819 49.6611 2.73201 49.6611 5.10519C49.6611 7.47836 48.0274 9.66521 46.0148 9.66521H38.5279V9.85154H44.5458L46.4397 13.1073C47.3422 14.6306 48.1295 16.1473 48.7981 17.6542H50.6888C49.5689 16.1506 48.3864 14.6306 47.4839 13.1073Z" fill="white"/>
<path d="M67.9908 0.345764H61.2285C61.4525 1.84943 61.5678 3.36944 61.5678 4.89271V13.1073C61.5678 14.6306 61.4558 16.1473 61.2285 17.6542H62.6086H67.9908C72.859 17.6542 76.6733 13.8591 76.6733 9.01471C76.6733 4.1703 72.859 0.345764 67.9908 0.345764ZM68.1324 17.4581H62.6086V0.538625H68.0995C72.1706 0.538625 75.2734 4.41873 75.2734 9.01145C75.2734 13.6042 72.1871 17.4581 68.1324 17.4581Z" fill="white"/>
<path fill-rule="evenodd" clip-rule="evenodd" d="M70.8865 3.28119L73.6106 5.43535V11.5808H74.0552V12.0024H73.1856V5.63802L71.3081 4.15397V12.0024H70.2344V7.24629H69.747V6.06297H67.5466V12.0057H66.4828V6.75923H65.9953V5.45496H65.5407V4.19646H65.1949V5.45496H64.7304V6.75923H64.2429V12.0024H63.3438V11.5808H63.8214V6.33755H64.3219V5.04636H64.7766V3.77478H65.9689V5.04636H66.4235V6.33755H66.911V11.5808H67.1284V5.63802H70.1752V6.82134H70.6626V11.5775H70.8899V3.28119H70.8865Z" fill="white"/>
<path d="M102.875 10.7922C102.578 9.60236 101.775 8.76554 100.487 8.30137C99.7588 8.03986 98.9386 7.98756 98.0493 8.14773C97.1995 8.30137 96.2772 8.51384 95.233 8.8015C93.9353 9.1578 92.7627 9.452 91.5308 9.43565C89.9365 9.41277 88.8891 8.62171 88.5037 7.14747C88.2468 6.16355 88.3456 5.17636 88.8002 4.21859C89.0571 3.67924 89.4062 3.1693 89.9003 2.6136C90.9148 1.47604 92.0709 0.783048 93.4346 0.495391C94.5347 0.263304 95.6316 0.227346 96.6889 0.38425C98.9518 0.72094 100.625 1.84215 101.663 3.71846C101.768 3.91132 101.864 4.12053 101.952 4.3232C101.992 4.41799 102.035 4.50952 102.078 4.60432L102.104 4.65989L102.921 3.83614L102.898 3.80672C102.898 3.80672 102.832 3.72173 102.776 3.65309C102.73 3.59425 102.684 3.53541 102.677 3.5256C101.653 2.16577 100.309 1.17204 98.6784 0.573843C97.0051 -0.0406981 95.2001 -0.161645 93.3094 0.211002C91.8338 0.505197 90.6085 1.02494 89.5611 1.79966C87.9734 2.98297 87.1829 4.51606 87.2158 6.36295C87.2422 7.74567 87.9141 8.79169 89.2185 9.47488C89.9761 9.87368 90.8325 9.99462 91.9919 9.87368C93.1843 9.74619 94.3766 9.38335 95.3318 9.08589C96.6263 8.68709 97.7067 8.51711 98.7377 8.54653C100.279 8.59229 101.33 9.41277 101.699 10.8609C101.867 11.5212 101.887 12.1978 101.755 12.881C101.59 13.7505 101.185 14.5416 100.51 15.3032C99.7917 16.1139 98.988 16.699 98.0493 17.0978C97.2522 17.4345 96.376 17.6274 95.3681 17.6829C93.6981 17.7744 92.2752 17.4803 91.007 16.784C89.7653 16.1008 88.8265 15.0352 88.2172 13.6165L88.1974 13.5675L87.3278 14.1885L87.3509 14.2245C88.4346 15.7707 89.8509 16.8461 91.5571 17.4214C92.7001 17.8071 93.8299 18 94.9399 18C96.7581 18 98.5335 17.4868 100.24 16.4571C101.35 15.787 102.147 14.875 102.601 13.7472C103.016 12.7208 103.109 11.7271 102.875 10.7922Z" fill="white"/>
</g>
<defs>
<clipPath id="clip0_2098_2">
<rect width="103" height="18" fill="white"/>
</clipPath>
</defs>
</svg>
