<?xml version="1.0" encoding="UTF-8"?>
<svg width="200px" height="58px" viewBox="0 0 200 58" version="1.1" xmlns="http://www.w3.org/2000/svg" xmlns:xlink="http://www.w3.org/1999/xlink">
    <!-- Generator: Sketch 52.6 (67491) - http://www.bohemiancoding.com/sketch -->
    <title>imedi_logo_full</title>
    <desc>Created with Sketch.</desc>
    <defs>
        <linearGradient x1="0.0598278336%" y1="49.9553247%" x2="99.9395983%" y2="49.9553247%" id="linearGradient-1">
            <stop stop-color="#F8AC00" offset="0%"></stop>
            <stop stop-color="#EF7D00" offset="100%"></stop>
        </linearGradient>
        <linearGradient x1="47.1657827%" y1="15.5088575%" x2="52.6585971%" y2="103.08665%" id="linearGradient-2">
            <stop stop-color="#EF7D00" offset="0.667067%"></stop>
            <stop stop-color="#C74617" offset="100%"></stop>
        </linearGradient>
        <linearGradient x1="50.0244253%" y1="16.1836453%" x2="50.0244253%" y2="96.9260099%" id="linearGradient-3">
            <stop stop-color="#EF7D00" offset="0.667067%"></stop>
            <stop stop-color="#C74617" offset="100%"></stop>
        </linearGradient>
        <linearGradient x1="49.9944341%" y1="12.5841098%" x2="49.9944341%" y2="96.0168475%" id="linearGradient-4">
            <stop stop-color="#20335F" offset="0%"></stop>
            <stop stop-color="#1F3A6F" offset="11.63%"></stop>
            <stop stop-color="#1D407D" offset="25.47%"></stop>
            <stop stop-color="#1B4488" offset="41.59%"></stop>
            <stop stop-color="#1A478E" offset="61.91%"></stop>
            <stop stop-color="#194890" offset="100%"></stop>
        </linearGradient>
        <linearGradient x1="49.973494%" y1="89.9988927%" x2="49.973494%" y2="2.98152249%" id="linearGradient-5">
            <stop stop-color="#1C5086" offset="0%"></stop>
            <stop stop-color="#5E8AC7" offset="100%"></stop>
        </linearGradient>
    </defs>
    <g id="Page-1" stroke="none" stroke-width="1" fill="none" fill-rule="evenodd">
        <g id="Imedi_Landing_1_c" transform="translate(-60.000000, -60.000000)">
            <g id="imedi_logo_full" transform="translate(60.000000, 60.000000)">
                <g id="Group" transform="translate(48.551292, 44.792482)" fill="#000000">
                    <path d="M3.85277995,1.17462803 L2.2083007,4.35395458 C2.06734534,4.63586531 1.89506656,4.8394675 1.69146437,4.98042287 C1.48786218,5.12137823 1.26859828,5.18402506 1.03367267,5.18402506 C0.845732185,5.18402506 0.657791699,5.13703994 0.469851214,5.0587314 L0.642129992,4.47924824 C0.783085356,4.52623336 0.908379013,4.55755677 1.00234926,4.55755677 C1.22161316,4.55755677 1.40955364,4.43226312 1.56617071,4.19733751 L1.62881754,4.10336727 L0.125293657,1.15896633 L0.877055599,1.15896633 L1.98903681,3.47689898 L3.14800313,1.15896633 L3.85277995,1.15896633 L3.85277995,1.17462803 Z" id="Path"></path>
                    <polygon id="Path" points="7.6898982 1.17462803 7.6898982 5.12137823 7.00078309 5.12137823 7.00078309 1.80109632 5.04306969 1.80109632 5.04306969 5.12137823 4.35395458 5.12137823 4.35395458 1.17462803"></polygon>
                    <path d="M11.1667972,1.34690681 C11.4173845,1.45653876 11.5896633,1.61315583 11.7306186,1.83241973 C11.8559123,2.03602193 11.9185591,2.28660924 11.9185591,2.58418168 C11.9185591,2.8660924 11.8559123,3.11667972 11.7306186,3.33594362 C11.605325,3.55520752 11.4173845,3.71182459 11.1667972,3.82145654 C10.9162099,3.93108849 10.6342991,3.99373532 10.3054033,3.99373532 L9.4440094,3.99373532 L9.4440094,5.13703994 L8.73923258,5.13703994 L8.73923258,1.19028974 L10.2897416,1.19028974 C10.6499608,1.17462803 10.9318716,1.23727486 11.1667972,1.34690681 Z M10.9788567,3.16366484 C11.1354738,3.02270948 11.2137823,2.83476899 11.2137823,2.58418168 C11.2137823,2.33359436 11.1354738,2.14565388 10.9788567,2.00469851 C10.8222396,1.86374315 10.587314,1.80109632 10.2740799,1.80109632 L9.4596711,1.80109632 L9.4596711,3.36726703 L10.2740799,3.36726703 C10.587314,3.36726703 10.8222396,3.2889585 10.9788567,3.16366484 Z" id="Shape" fill-rule="nonzero"></path>
                    <path d="M14.9099452,4.19733751 L13.0148786,4.19733751 L12.6389977,5.10571652 L11.9185591,5.10571652 L13.6256852,1.15896633 L14.3148003,1.15896633 L16.0219264,5.10571652 L15.2858262,5.10571652 L14.9099452,4.19733751 Z M14.6750196,3.63351605 L13.954581,1.91072827 L13.2498042,3.63351605 L14.6750196,3.63351605 Z" id="Shape" fill-rule="nonzero"></path>
                    <path d="M19.6397807,3.41425215 C19.7650744,3.57086922 19.8277212,3.77447142 19.8277212,4.02505873 C19.8277212,4.36961629 19.7024276,4.63586531 19.467502,4.82380579 C19.2169146,5.01174628 18.8723571,5.10571652 18.4025059,5.10571652 L16.6014096,5.10571652 L16.6014096,1.15896633 L18.2928739,1.15896633 C18.71574,1.15896633 19.0446359,1.25293657 19.2795615,1.42521535 C19.5144871,1.59749413 19.6397807,1.84808144 19.6397807,2.17697729 C19.6397807,2.38057948 19.5927956,2.56851997 19.4988254,2.70947533 C19.4048551,2.8660924 19.2638998,2.97572435 19.091621,3.05403289 C19.3265466,3.13234143 19.5144871,3.24197338 19.6397807,3.41425215 Z M17.2905247,2.8660924 L18.2302271,2.8660924 C18.449491,2.8660924 18.6374315,2.81910728 18.7470634,2.72513704 C18.8723571,2.6311668 18.9193422,2.49021143 18.9193422,2.30227095 C18.9193422,2.11433046 18.8566954,1.9733751 18.7470634,1.87940486 C18.6217698,1.78543461 18.449491,1.73844949 18.2302271,1.73844949 L17.2905247,1.73844949 L17.2905247,2.8660924 Z M19.1229444,3.9624119 C19.1229444,3.58653093 18.8723571,3.38292874 18.3711825,3.38292874 L17.2905247,3.38292874 L17.2905247,4.54189507 L18.3711825,4.54189507 C18.8723571,4.55755677 19.1229444,4.35395458 19.1229444,3.9624119 Z" id="Shape" fill-rule="nonzero"></path>
                    <path d="M23.8684417,1.17462803 L23.8684417,5.12137823 L23.1793265,5.12137823 L23.1793265,1.80109632 L21.6914644,1.80109632 L21.660141,2.78778387 C21.6444792,3.33594362 21.5974941,3.79013312 21.5348473,4.13469068 C21.4722005,4.47924824 21.3625685,4.74549726 21.2059514,4.91777604 C21.0493344,5.09005482 20.8457322,5.18402506 20.5794832,5.18402506 C20.4855129,5.18402506 20.3602193,5.16836335 20.2036022,5.12137823 L20.2505873,4.47924824 C20.2975724,4.49490995 20.3445576,4.49490995 20.4072044,4.49490995 C20.6264683,4.49490995 20.7830854,4.35395458 20.8770556,4.08770556 C20.9710258,3.82145654 21.018011,3.38292874 21.0493344,2.80344558 L21.0963195,1.17462803 L23.8684417,1.17462803 Z" id="Path"></path>
                    <polygon id="Path" points="27.7682067 4.49490995 27.7682067 5.10571652 24.9334377 5.10571652 24.9334377 1.15896633 27.6898982 1.15896633 27.6898982 1.76977291 25.6382146 1.76977291 25.6382146 2.78778387 27.4706343 2.78778387 27.4706343 3.38292874 25.6382146 3.38292874 25.6382146 4.46358653 27.7682067 4.46358653"></polygon>
                    <polygon id="Path" points="31.9028974 1.17462803 31.9028974 5.12137823 31.1981206 5.12137823 31.1981206 3.42991386 29.2404072 3.42991386 29.2404072 5.12137823 28.5356304 5.12137823 28.5356304 1.17462803 29.2404072 1.17462803 29.2404072 2.80344558 31.1981206 2.80344558 31.1981206 1.17462803"></polygon>
                    <polygon id="Path" points="32.9678935 1.17462803 33.6570086 1.17462803 33.6570086 3.97807361 35.6930305 1.17462803 36.3508222 1.17462803 36.3508222 5.12137823 35.6617071 5.12137823 35.6617071 2.33359436 33.6256852 5.12137823 32.9678935 5.12137823"></polygon>
                    <polygon id="Path" points="40.2505873 4.49490995 40.2505873 5.10571652 37.4158183 5.10571652 37.4158183 1.15896633 40.1722788 1.15896633 40.1722788 1.76977291 38.1205951 1.76977291 38.1205951 2.78778387 39.9373532 2.78778387 39.9373532 3.38292874 38.1049334 3.38292874 38.1049334 4.46358653 40.2505873 4.46358653"></polygon>
                    <polygon id="Path" points="43.9154268 3.46123727 43.21065 3.46123727 43.21065 5.12137823 42.5215348 5.12137823 42.5215348 1.17462803 43.21065 1.17462803 43.21065 2.81910728 43.9310885 2.81910728 45.0117463 1.17462803 45.7635082 1.17462803 44.4792482 3.0853563 45.8261551 5.12137823 45.027408 5.12137823"></polygon>
                    <path d="M47.0007831,4.91777604 C46.6875489,4.74549726 46.4526233,4.49490995 46.2646829,4.19733751 C46.0924041,3.88410337 45.9984338,3.53954581 45.9984338,3.16366484 C45.9984338,2.78778387 46.0924041,2.4275646 46.2646829,2.12999217 C46.4369616,1.81675803 46.6875489,1.58183242 47.0007831,1.40955364 C47.3140172,1.23727486 47.6585748,1.14330462 48.0501175,1.14330462 C48.4416601,1.14330462 48.7862177,1.23727486 49.0994518,1.40955364 C49.412686,1.58183242 49.6476116,1.83241973 49.8355521,2.12999217 C50.0078309,2.44322631 50.1018011,2.78778387 50.1018011,3.17932655 C50.1018011,3.57086922 50.0078309,3.91542678 49.8355521,4.21299922 C49.6632733,4.52623336 49.412686,4.76115897 49.0994518,4.93343774 C48.7862177,5.10571652 48.4416601,5.19968677 48.0501175,5.19968677 C47.6585748,5.16836335 47.3140172,5.09005482 47.0007831,4.91777604 Z M48.7235709,4.35395458 C48.9271731,4.22866092 49.0837901,4.07204385 49.1934221,3.85277995 C49.303054,3.63351605 49.3657009,3.39859045 49.3657009,3.14800313 C49.3657009,2.88175411 49.303054,2.6468285 49.1934221,2.44322631 C49.0837901,2.22396241 48.9271731,2.06734534 48.7235709,1.94205168 C48.5199687,1.81675803 48.3007048,1.76977291 48.0501175,1.76977291 C47.7995301,1.76977291 47.5646045,1.83241973 47.3766641,1.94205168 C47.1730619,2.06734534 47.0164448,2.22396241 46.9068128,2.44322631 C46.7971809,2.66249021 46.7345341,2.89741582 46.7345341,3.14800313 C46.7345341,3.41425215 46.7971809,3.64917776 46.9068128,3.85277995 C47.0164448,4.07204385 47.1730619,4.22866092 47.3766641,4.35395458 C47.5802662,4.47924824 47.7995301,4.52623336 48.0501175,4.52623336 C48.3007048,4.52623336 48.5199687,4.46358653 48.7235709,4.35395458 Z" id="Shape" fill-rule="nonzero"></path>
                    <polygon id="Path" points="54.330462 5.12137823 54.330462 2.50587314 53.0931872 4.66718872 52.779953 4.66718872 51.5426782 2.53719655 51.5426782 5.12137823 50.8848865 5.12137823 50.8848865 1.17462803 51.4643696 1.17462803 52.9678935 3.77447142 54.4557557 1.17462803 55.0352388 1.17462803 55.0509005 5.12137823"></polygon>
                    <polygon id="Path" points="59.5301488 5.12137823 59.5301488 2.50587314 58.2928739 4.66718872 57.9796398 4.66718872 56.7423649 2.53719655 56.7423649 5.12137823 56.0689115 5.12137823 56.0689115 1.17462803 56.6483947 1.17462803 58.1519186 3.77447142 59.6397807 1.17462803 60.2192639 1.17462803 60.2349256 5.12137823"></polygon>
                    <polygon id="Path" points="64.1033673 4.49490995 64.1033673 5.10571652 61.2685983 5.10571652 61.2685983 1.15896633 64.0250587 1.15896633 64.0250587 1.76977291 61.9733751 1.76977291 61.9733751 2.78778387 63.8057948 2.78778387 63.8057948 3.38292874 61.9733751 3.38292874 61.9733751 4.46358653 64.1033673 4.46358653"></polygon>
                    <path d="M67.2983555,1.34690681 C67.5489428,1.45653876 67.7212216,1.61315583 67.862177,1.83241973 C67.9874706,2.03602193 68.0501175,2.28660924 68.0501175,2.58418168 C68.0501175,2.8660924 67.9874706,3.11667972 67.862177,3.33594362 C67.7368833,3.55520752 67.5489428,3.71182459 67.2983555,3.82145654 C67.0477682,3.93108849 66.7658575,3.99373532 66.4369616,3.99373532 L65.5755677,3.99373532 L65.5755677,5.13703994 L64.8707909,5.13703994 L64.8707909,1.19028974 L66.4212999,1.19028974 C66.7658575,1.17462803 67.0634299,1.23727486 67.2983555,1.34690681 Z M67.110415,3.16366484 C67.2670321,3.02270948 67.3453406,2.83476899 67.3453406,2.58418168 C67.3453406,2.33359436 67.2670321,2.14565388 67.110415,2.00469851 C66.953798,1.86374315 66.7188724,1.80109632 66.4056382,1.80109632 L65.5912294,1.80109632 L65.5912294,3.36726703 L66.4056382,3.36726703 C66.7188724,3.36726703 66.953798,3.2889585 67.110415,3.16366484 Z" id="Shape" fill-rule="nonzero"></path>
                    <path d="M71.6209867,1.17462803 L71.6209867,5.12137823 L70.9162099,5.12137823 L70.9162099,3.63351605 C70.5559906,3.77447142 70.2270948,3.83711825 69.8981989,3.83711825 C69.412686,3.83711825 69.036805,3.71182459 68.7862177,3.47689898 C68.5199687,3.24197338 68.394675,2.88175411 68.394675,2.4275646 L68.394675,1.17462803 L69.0994518,1.17462803 L69.0994518,2.34925607 C69.0994518,2.6311668 69.1777604,2.83476899 69.3343774,2.99138606 C69.4909945,3.13234143 69.7102584,3.21064996 69.9921691,3.21064996 C70.321065,3.21064996 70.6342991,3.14800313 70.9162099,3.00704777 L70.9162099,1.19028974 L71.6209867,1.19028974 L71.6209867,1.17462803 Z" id="Path"></path>
                    <polygon id="Path" points="75.5207518 4.49490995 75.5207518 5.10571652 72.6859828 5.10571652 72.6859828 1.15896633 75.4424432 1.15896633 75.4424432 1.76977291 73.3907596 1.76977291 73.3907596 2.78778387 75.2231793 2.78778387 75.2231793 3.38292874 73.3907596 3.38292874 73.3907596 4.46358653 75.5207518 4.46358653"></polygon>
                    <path d="M76.9929522,4.91777604 C76.6797181,4.74549726 76.4447925,4.49490995 76.2725137,4.19733751 C76.1002349,3.88410337 76.0062647,3.53954581 76.0062647,3.16366484 C76.0062647,2.77212216 76.1002349,2.4275646 76.2725137,2.11433046 C76.4447925,1.80109632 76.6953798,1.56617071 76.9929522,1.39389193 C77.3061864,1.22161316 77.6507439,1.12764291 78.0266249,1.12764291 C78.339859,1.12764291 78.6217698,1.19028974 78.8723571,1.29992169 C79.1229444,1.40955364 79.3422083,1.58183242 79.5144871,1.78543461 L79.0602976,2.22396241 C78.7940486,1.91072827 78.449491,1.76977291 78.0422866,1.76977291 C77.7760376,1.76977291 77.5567737,1.83241973 77.3375098,1.94205168 C77.1339076,2.06734534 76.9772905,2.22396241 76.8519969,2.4275646 C76.7423649,2.6311668 76.6797181,2.88175411 76.6797181,3.14800313 C76.6797181,3.41425215 76.7423649,3.64917776 76.8519969,3.86844166 C76.9616288,4.07204385 77.1339076,4.24432263 77.3375098,4.35395458 C77.541112,4.47924824 77.7760376,4.52623336 78.0422866,4.52623336 C78.449491,4.52623336 78.7783868,4.36961629 79.0602976,4.05638215 L79.5144871,4.51057165 C79.3422083,4.72983555 79.1229444,4.88645262 78.8566954,4.99608457 C78.6061081,5.10571652 78.3085356,5.16836335 78.0109632,5.16836335 C77.6507439,5.16836335 77.3061864,5.09005482 76.9929522,4.91777604 Z" id="Path"></path>
                    <polygon id="Path" points="81.5818324 3.46123727 80.8770556 3.46123727 80.8770556 5.12137823 80.1879405 5.12137823 80.1879405 1.17462803 80.8770556 1.17462803 80.8770556 2.81910728 81.5974941 2.81910728 82.6781519 1.17462803 83.4299139 1.17462803 82.1456539 3.0853563 83.4925607 5.12137823 82.6938136 5.12137823"></polygon>
                    <path d="M84.6671887,4.91777604 C84.3539546,4.74549726 84.119029,4.49490995 83.9310885,4.19733751 C83.7588097,3.88410337 83.6648395,3.53954581 83.6648395,3.16366484 C83.6648395,2.78778387 83.7588097,2.4275646 83.9310885,2.12999217 C84.1033673,1.81675803 84.3539546,1.58183242 84.6671887,1.40955364 C84.9804229,1.23727486 85.3249804,1.14330462 85.7165231,1.14330462 C86.1080658,1.14330462 86.4526233,1.23727486 86.7658575,1.40955364 C87.0790916,1.58183242 87.3140172,1.83241973 87.5019577,2.12999217 C87.6742365,2.44322631 87.7682067,2.78778387 87.7682067,3.17932655 C87.7682067,3.57086922 87.6742365,3.91542678 87.5019577,4.21299922 C87.3296789,4.52623336 87.0790916,4.76115897 86.7658575,4.93343774 C86.4526233,5.10571652 86.1080658,5.19968677 85.7165231,5.19968677 C85.3249804,5.16836335 84.9647612,5.09005482 84.6671887,4.91777604 Z M86.3899765,4.35395458 C86.5935787,4.22866092 86.7501958,4.07204385 86.8598277,3.85277995 C86.9694597,3.63351605 87.0321065,3.39859045 87.0321065,3.14800313 C87.0321065,2.88175411 86.9694597,2.6468285 86.8598277,2.44322631 C86.7501958,2.22396241 86.5935787,2.06734534 86.3899765,1.94205168 C86.1863743,1.81675803 85.9671104,1.76977291 85.7165231,1.76977291 C85.4659358,1.76977291 85.2310102,1.83241973 85.0430697,1.94205168 C84.8394675,2.06734534 84.6828504,2.22396241 84.5732185,2.44322631 C84.4635865,2.66249021 84.4009397,2.89741582 84.4009397,3.14800313 C84.4009397,3.41425215 84.4635865,3.64917776 84.5732185,3.85277995 C84.6828504,4.07204385 84.8394675,4.22866092 85.0430697,4.35395458 C85.2466719,4.47924824 85.4659358,4.52623336 85.7165231,4.52623336 C85.9514487,4.52623336 86.1863743,4.46358653 86.3899765,4.35395458 Z" id="Shape" fill-rule="nonzero"></path>
                    <path d="M88.5199687,1.17462803 L89.2090838,1.17462803 L89.2090838,3.97807361 L91.2451057,1.17462803 L91.9028974,1.17462803 L91.9028974,5.12137823 L91.2137823,5.12137823 L91.2137823,2.33359436 L89.1777604,5.12137823 L88.5199687,5.12137823 L88.5199687,1.17462803 Z M89.4753328,0.704776821 C89.3187157,0.563821457 89.2247455,0.360219264 89.2247455,0.0939702428 L89.7102584,0.0939702428 C89.7102584,0.234925607 89.7572435,0.344557557 89.8355521,0.407204385 C89.9138606,0.485512921 90.0391543,0.516836335 90.1957713,0.516836335 C90.3523884,0.516836335 90.4776821,0.485512921 90.5559906,0.407204385 C90.6499608,0.32889585 90.696946,0.2192639 90.696946,0.0939702428 L91.1824589,0.0939702428 C91.1824589,0.360219264 91.0884886,0.563821457 90.9318716,0.704776821 C90.7595928,0.845732185 90.5246672,0.908379013 90.1957713,0.908379013 C89.8825372,0.908379013 89.6319499,0.845732185 89.4753328,0.704776821 Z" id="Shape" fill-rule="nonzero"></path>
                    <polygon id="Path" points="97.807361 1.17462803 97.807361 5.12137823 97.1025842 5.12137823 97.1025842 3.42991386 95.1448708 3.42991386 95.1448708 5.12137823 94.440094 5.12137823 94.440094 1.17462803 95.1448708 1.17462803 95.1448708 2.80344558 97.1025842 2.80344558 97.1025842 1.17462803"></polygon>
                    <polygon id="Path" points="101.707126 4.49490995 101.707126 5.10571652 98.8723571 5.10571652 98.8723571 1.15896633 101.628818 1.15896633 101.628818 1.76977291 99.5771339 1.76977291 99.5771339 2.78778387 101.409554 2.78778387 101.409554 3.38292874 99.5771339 3.38292874 99.5771339 4.46358653 101.707126 4.46358653"></polygon>
                    <path d="M106.249021,4.49490995 L106.249021,5.95144871 L105.606891,5.95144871 L105.606891,5.10571652 L102.709475,5.10571652 L102.709475,5.95144871 L102.051684,5.95144871 L102.051684,4.49490995 L102.208301,4.49490995 C102.443226,4.47924824 102.615505,4.30696946 102.709475,3.9467502 C102.803446,3.58653093 102.866092,3.0853563 102.881754,2.4275646 L102.928739,1.17462803 L105.700861,1.17462803 L105.700861,4.49490995 L106.249021,4.49490995 Z M103.382929,3.77447142 C103.320282,4.11902897 103.226312,4.35395458 103.085356,4.51057165 L104.996085,4.51057165 L104.996085,1.80109632 L103.508222,1.80109632 L103.476899,2.50587314 C103.476899,3.00704777 103.445576,3.42991386 103.382929,3.77447142 Z" id="Shape" fill-rule="nonzero"></path>
                    <path d="M109.945184,3.41425215 C110.070478,3.57086922 110.133125,3.77447142 110.133125,4.02505873 C110.133125,4.36961629 110.007831,4.63586531 109.772905,4.82380579 C109.522318,5.01174628 109.17776,5.10571652 108.707909,5.10571652 L106.906813,5.10571652 L106.906813,1.15896633 L108.598277,1.15896633 C109.021143,1.15896633 109.350039,1.25293657 109.584965,1.42521535 C109.81989,1.59749413 109.945184,1.84808144 109.945184,2.17697729 C109.945184,2.38057948 109.898199,2.56851997 109.804229,2.70947533 C109.710258,2.8660924 109.569303,2.97572435 109.397024,3.05403289 C109.63195,3.13234143 109.81989,3.24197338 109.945184,3.41425215 Z M107.595928,2.8660924 L108.53563,2.8660924 C108.754894,2.8660924 108.942835,2.81910728 109.052467,2.72513704 C109.17776,2.6311668 109.224745,2.49021143 109.224745,2.30227095 C109.224745,2.11433046 109.162099,1.9733751 109.052467,1.87940486 C108.927173,1.78543461 108.754894,1.73844949 108.53563,1.73844949 L107.595928,1.73844949 L107.595928,2.8660924 Z M109.428348,3.9624119 C109.428348,3.58653093 109.17776,3.38292874 108.676586,3.38292874 L107.595928,3.38292874 L107.595928,4.54189507 L108.676586,4.54189507 C109.17776,4.55755677 109.428348,4.35395458 109.428348,3.9624119 Z" id="Shape" fill-rule="nonzero"></path>
                    <polygon id="Path" points="110.947533 1.17462803 111.636648 1.17462803 111.636648 3.97807361 113.67267 1.17462803 114.330462 1.17462803 114.330462 5.12137823 113.641347 5.12137823 113.641347 2.33359436 111.605325 5.12137823 110.947533 5.12137823"></polygon>
                    <polygon id="Path" points="118.684417 3.46123727 118.042287 3.46123727 118.042287 5.12137823 117.353171 5.12137823 117.353171 3.46123727 116.711042 3.46123727 115.755677 5.12137823 114.941269 5.12137823 116.131558 3.0696946 115.019577 1.19028974 115.771339 1.19028974 116.69538 2.83476899 117.353171 2.83476899 117.353171 1.19028974 118.042287 1.19028974 118.042287 2.81910728 118.700078 2.81910728 119.624119 1.17462803 120.375881 1.17462803 119.279561 3.0696946 120.469851 5.12137823 119.655442 5.12137823"></polygon>
                    <polygon id="Path" points="120.939702 1.17462803 121.628818 1.17462803 121.628818 3.97807361 123.664839 1.17462803 124.322631 1.17462803 124.322631 5.12137823 123.633516 5.12137823 123.633516 2.33359436 121.597494 5.12137823 120.939702 5.12137823"></polygon>
                    <polygon id="Path" points="128.848865 5.12137823 128.848865 2.50587314 127.61159 4.66718872 127.298356 4.66718872 126.061081 2.53719655 126.061081 5.12137823 125.403289 5.12137823 125.403289 1.17462803 125.982772 1.17462803 127.486296 3.77447142 128.974158 1.17462803 129.553641 1.17462803 129.569303 5.12137823"></polygon>
                    <path d="M131.292091,4.91777604 C130.978857,4.74549726 130.743931,4.49490995 130.555991,4.19733751 C130.383712,3.88410337 130.289742,3.53954581 130.289742,3.16366484 C130.289742,2.78778387 130.383712,2.4275646 130.555991,2.12999217 C130.728269,1.81675803 130.978857,1.58183242 131.292091,1.40955364 C131.605325,1.23727486 131.949883,1.14330462 132.341425,1.14330462 C132.732968,1.14330462 133.077525,1.23727486 133.39076,1.40955364 C133.703994,1.58183242 133.938919,1.83241973 134.12686,2.12999217 C134.299139,2.44322631 134.393109,2.78778387 134.393109,3.17932655 C134.393109,3.57086922 134.299139,3.91542678 134.12686,4.21299922 C133.954581,4.52623336 133.703994,4.76115897 133.39076,4.93343774 C133.077525,5.10571652 132.732968,5.19968677 132.341425,5.19968677 C131.949883,5.16836335 131.605325,5.09005482 131.292091,4.91777604 Z M133.014879,4.35395458 C133.218481,4.22866092 133.375098,4.07204385 133.48473,3.85277995 C133.594362,3.63351605 133.657009,3.39859045 133.657009,3.14800313 C133.657009,2.88175411 133.594362,2.6468285 133.48473,2.44322631 C133.375098,2.22396241 133.218481,2.06734534 133.014879,1.94205168 C132.811276,1.81675803 132.592013,1.76977291 132.341425,1.76977291 C132.090838,1.76977291 131.855912,1.83241973 131.667972,1.94205168 C131.46437,2.06734534 131.307753,2.22396241 131.198121,2.44322631 C131.088489,2.66249021 131.025842,2.89741582 131.025842,3.14800313 C131.025842,3.41425215 131.088489,3.64917776 131.198121,3.85277995 C131.307753,4.07204385 131.46437,4.22866092 131.667972,4.35395458 C131.871574,4.47924824 132.090838,4.52623336 132.341425,4.52623336 C132.592013,4.52623336 132.811276,4.46358653 133.014879,4.35395458 Z" id="Shape" fill-rule="nonzero"></path>
                    <path d="M135.849648,4.91777604 C135.536413,4.74549726 135.301488,4.49490995 135.129209,4.19733751 C134.95693,3.88410337 134.86296,3.53954581 134.86296,3.16366484 C134.86296,2.77212216 134.95693,2.4275646 135.129209,2.11433046 C135.301488,1.80109632 135.552075,1.56617071 135.849648,1.39389193 C136.162882,1.22161316 136.507439,1.12764291 136.88332,1.12764291 C137.196554,1.12764291 137.478465,1.19028974 137.729052,1.29992169 C137.97964,1.40955364 138.198904,1.58183242 138.371182,1.78543461 L137.916993,2.22396241 C137.650744,1.91072827 137.306186,1.76977291 136.898982,1.76977291 C136.632733,1.76977291 136.413469,1.83241973 136.194205,1.94205168 C135.990603,2.06734534 135.833986,2.22396241 135.708692,2.4275646 C135.59906,2.6311668 135.536413,2.88175411 135.536413,3.14800313 C135.536413,3.41425215 135.59906,3.64917776 135.708692,3.86844166 C135.818324,4.07204385 135.990603,4.24432263 136.194205,4.35395458 C136.397807,4.47924824 136.632733,4.52623336 136.898982,4.52623336 C137.306186,4.52623336 137.635082,4.36961629 137.916993,4.05638215 L138.371182,4.51057165 C138.198904,4.72983555 137.97964,4.88645262 137.713391,4.99608457 C137.462803,5.10571652 137.165231,5.16836335 136.867659,5.16836335 C136.507439,5.16836335 136.162882,5.09005482 135.849648,4.91777604 Z" id="Path"></path>
                    <polygon id="Path" points="141.754111 1.80109632 140.501175 1.80109632 140.501175 5.12137823 139.796398 5.12137823 139.796398 1.80109632 138.543461 1.80109632 138.543461 1.17462803 141.738449 1.17462803 141.738449 1.80109632"></polygon>
                    <path d="M145.152702,2.83476899 C145.403289,3.05403289 145.512921,3.36726703 145.512921,3.77447142 C145.512921,4.21299922 145.371966,4.54189507 145.105717,4.77682067 C144.839468,5.01174628 144.463587,5.12137823 143.978074,5.12137823 L142.364918,5.12137823 L142.364918,1.17462803 L143.054033,1.17462803 L143.054033,2.50587314 L144.103367,2.50587314 C144.557557,2.50587314 144.902114,2.61550509 145.152702,2.83476899 Z M144.58888,4.35395458 C144.729836,4.22866092 144.808144,4.02505873 144.808144,3.77447142 C144.808144,3.3046202 144.526233,3.05403289 143.94675,3.05403289 L143.038371,3.05403289 L143.038371,4.54189507 L143.94675,4.54189507 C144.228661,4.55755677 144.432263,4.49490995 144.58888,4.35395458 Z" id="Shape" fill-rule="nonzero"></path>
                    <path d="M150.46202,1.37823023 C150.759593,1.55050901 150.994518,1.80109632 151.166797,2.09866875 C151.339076,2.4119029 151.417384,2.75646045 151.417384,3.14800313 C151.417384,3.53954581 151.339076,3.88410337 151.166797,4.1816758 C150.994518,4.49490995 150.759593,4.72983555 150.46202,4.90211433 C150.164448,5.07439311 149.835552,5.16836335 149.459671,5.16836335 C149.115114,5.16836335 148.817541,5.09005482 148.53563,4.94909945 C148.25372,4.80814409 148.034456,4.6045419 147.846515,4.33829287 C147.674236,4.07204385 147.564605,3.77447142 147.517619,3.44557557 L146.922475,3.44557557 L146.922475,5.12137823 L146.233359,5.12137823 L146.233359,1.17462803 L146.922475,1.17462803 L146.922475,2.78778387 L147.533281,2.78778387 C147.580266,2.45888802 147.70556,2.17697729 147.877839,1.91072827 C148.050117,1.66014096 148.285043,1.45653876 148.551292,1.3155834 C148.833203,1.17462803 149.130775,1.11198121 149.459671,1.11198121 C149.835552,1.11198121 150.164448,1.20595145 150.46202,1.37823023 Z M150.101801,4.35395458 C150.289742,4.24432263 150.446359,4.07204385 150.555991,3.86844166 C150.665623,3.66483947 150.712608,3.41425215 150.712608,3.14800313 C150.712608,2.88175411 150.665623,2.6311668 150.555991,2.4275646 C150.446359,2.22396241 150.305403,2.05168363 150.101801,1.94205168 C149.913861,1.83241973 149.694597,1.76977291 149.459671,1.76977291 C149.224745,1.76977291 149.021143,1.83241973 148.817541,1.94205168 C148.629601,2.05168363 148.472984,2.22396241 148.363352,2.4275646 C148.25372,2.6311668 148.191073,2.88175411 148.191073,3.14800313 C148.191073,3.41425215 148.238058,3.66483947 148.363352,3.86844166 C148.472984,4.07204385 148.629601,4.24432263 148.817541,4.35395458 C149.005482,4.46358653 149.224745,4.52623336 149.459671,4.52623336 C149.694597,4.52623336 149.913861,4.47924824 150.101801,4.35395458 Z" id="Shape" fill-rule="nonzero"></path>
                </g>
                <g id="Group-2" transform="translate(48.864526, 9.083790)" fill="#000000">
                    <polygon id="Path" points="57.6507439 27.9404855 53.2654659 27.9404855 53.2654659 9.25606891 44.2913078 15.7713391 35.4894283 9.30305403 35.4894283 27.9404855 31.0415035 27.9404855 31.0415035 0.532498042 44.3069695 10.2740799 57.6507439 0.563821457"></polygon>
                    <polygon id="Path" points="107.768207 1.28425998 93.1714957 1.28425998 93.1714957 5.76350822 106.468285 5.76350822 115.41112 12.2944401 115.41112 23.476899 97.6507439 23.476899 97.6507439 12.3257635 93.1714957 12.3257635 93.1714957 23.476899 93.1714957 27.9404855 97.6507439 27.9404855 119.780736 27.9404855 119.780736 10.054816"></polygon>
                    <polygon id="Path" points="22.1769773 1.29992169 22.1769773 7.56460454 4.41660141 20.5168363 4.41660141 1.28425998 0 1.26859828 0 29.1307753 22.1769773 12.9992169 22.1769773 27.9404855 26.5622553 27.9404855 26.5622553 1.29992169"></polygon>
                    <polygon id="Path" points="128.676586 16.2098669 128.676586 1.34690681 124.291308 1.34690681 124.291308 27.9404855 128.676586 27.9404855 128.676586 21.6288175 146.468285 8.67658575 146.468285 27.9404855 150.884886 27.9404855 150.884886 0.0783085356"></polygon>
                    <polygon id="Path" points="88.7392326 5.7165231 88.7392326 1.26859828 62.1299922 1.26859828 62.1299922 27.9404855 88.7392326 27.9404855 88.7392326 23.4925607 66.577917 23.4925607 66.577917 16.7736883 88.7392326 16.7736883 88.7392326 12.3570869 66.577917 12.3570869 66.577917 5.7165231"></polygon>
                </g>
                <g id="Group-3">
                    <polygon id="Path" fill="url(#linearGradient-1)" points="20.2192639 2.45888802 20.2192639 6.5935787 31.1354738 14.5184025 31.1354738 10.3993735"></polygon>
                    <polygon id="Path" fill="url(#linearGradient-2)" points="20.2192639 10.5559906 20.2192639 27.0634299 31.1198121 34.9569303 31.1198121 22.8660924 38.5277995 23.8684417"></polygon>
                    <polygon id="Path" fill="url(#linearGradient-3)" points="20.2192639 27.0634299 20.2192639 42.9600626 31.1198121 34.9569303"></polygon>
                    <polygon id="Path" fill="url(#linearGradient-4)" points="16.898982 0.0939702428 0.0156617071 12.3884103 16.898982 24.6358653"></polygon>
                    <polygon id="Path" fill="url(#linearGradient-5)" points="16.898982 24.6358653 0.0156617071 12.3884103 0.0156617071 19.2638998 4.57321848 15.9279561 4.57321848 18.7783868 -1.42108547e-14 22.0986688 -1.42108547e-14 25.7008614 4.57321848 22.3649178 4.57321848 25.1996868 -1.42108547e-14 28.5356304 -1.42108547e-14 32.1221613 4.57321848 28.8018794 4.57321848 31.6366484 -1.42108547e-14 34.972592 -1.42108547e-14 38.5591229 4.57321848 35.238841 4.57321848 38.07361 -1.42108547e-14 41.3938919 -1.42108547e-14 57.6507439 11.7149569 49.1307753 11.7149569 42.8191073 5.32498042 47.4706343"></polygon>
                </g>
            </g>
        </g>
    </g>
</svg>