<svg width="15" height="21" viewBox="0 0 15 21" fill="none" xmlns="http://www.w3.org/2000/svg">
<g clip-path="url(#clip0_129_4907)">
<path d="M7.77635 20.8627C8.07107 20.4581 15 10.9104 15 7.10606C15 3.18149 11.6421 0 7.5 0C3.35786 0 6.17226e-08 3.18149 0 7.10606C0 10.9104 6.92893 20.4581 7.22365 20.8627C7.28637 20.9487 7.38967 21 7.5 21C7.61033 21 7.71363 20.9487 7.77635 20.8627ZM7.5 4.2C9.09313 4.2 10.3846 5.37525 10.3846 6.825C10.3846 8.27475 9.09313 9.45 7.5 9.45C5.90687 9.45 4.61538 8.27475 4.61538 6.825C4.6172 5.37594 5.90762 4.20165 7.5 4.2Z" fill="#886F8A"/>
</g>
<defs>
<clipPath id="clip0_129_4907">
<rect width="15" height="21" fill="white"/>
</clipPath>
</defs>
</svg>
