<svg width="48" height="66" viewBox="0 0 48 66" fill="none" xmlns="http://www.w3.org/2000/svg">
<g filter="url(#filter0_d_201_4992)">
<path d="M24.7369 59.6483C25.5228 58.5498 44 32.6249 44 22.2951C44 11.6387 35.0457 3 24 3C12.9543 3 4 11.6387 4 22.2951C4 32.6249 22.4772 58.5498 23.2631 59.6483C23.4303 59.8819 23.7058 60.0213 24 60.0213C24.2942 60.0213 24.5697 59.8819 24.7369 59.6483ZM23.5745 14.0638C27.8047 14.0638 31.234 17.3026 31.234 21.2979C31.234 25.2931 27.8047 28.5319 23.5745 28.5319C19.3442 28.5319 15.9149 25.2931 15.9149 21.2979C15.9197 17.3045 19.3462 14.0684 23.5745 14.0638Z" fill="#483949"/>
</g>
<path d="M24.7369 59.6483C25.5228 58.5498 44 32.6249 44 22.2951C44 11.6387 35.0457 3 24 3C12.9543 3 4 11.6387 4 22.2951C4 32.6249 22.4772 58.5498 23.2631 59.6483C23.4303 59.8819 23.7058 60.0213 24 60.0213C24.2942 60.0213 24.5697 59.8819 24.7369 59.6483ZM23.5745 14.0638C27.8047 14.0638 31.234 17.3026 31.234 21.2979C31.234 25.2931 27.8047 28.5319 23.5745 28.5319C19.3442 28.5319 15.9149 25.2931 15.9149 21.2979C15.9197 17.3045 19.3462 14.0684 23.5745 14.0638Z" fill="#483949"/>
<defs>
<filter id="filter0_d_201_4992" x="0" y="0" width="48" height="65.0212" filterUnits="userSpaceOnUse" color-interpolation-filters="sRGB">
<feFlood flood-opacity="0" result="BackgroundImageFix"/>
<feColorMatrix in="SourceAlpha" type="matrix" values="0 0 0 0 0 0 0 0 0 0 0 0 0 0 0 0 0 0 127 0" result="hardAlpha"/>
<feOffset dy="1"/>
<feGaussianBlur stdDeviation="2"/>
<feColorMatrix type="matrix" values="0 0 0 0 0 0 0 0 0 0 0 0 0 0 0 0 0 0 0.103714 0"/>
<feBlend mode="normal" in2="BackgroundImageFix" result="effect1_dropShadow_201_4992"/>
<feBlend mode="normal" in="SourceGraphic" in2="effect1_dropShadow_201_4992" result="shape"/>
</filter>
</defs>
</svg>
