<?xml version="1.0" encoding="UTF-8"?>
<svg width="50px" height="72px" viewBox="0 0 50 72" version="1.1" xmlns="http://www.w3.org/2000/svg" xmlns:xlink="http://www.w3.org/1999/xlink">
    <!-- Generator: Sketch 52.6 (67491) - http://www.bohemiancoding.com/sketch -->
    <title>pin-smoln</title>
    <desc>Created with Sketch.</desc>
    <g id="Page-1" stroke="none" stroke-width="1" fill="none" fill-rule="evenodd">
        <g id="pin-smoln">
            <g id="Shape" fill-rule="nonzero">
                <g id="path-1-link" fill="#000000">
                    <path d="M25.9211791,71.5627854 C26.9035672,70.1750635 50,37.4245728 50,24.375103 C49.9999998,10.9131053 38.8071186,1.29250393e-15 25,0 C11.1928814,-1.29250393e-15 2.05742101e-07,10.9131053 0,24.375103 C0,37.4245728 23.0964328,70.1750635 24.0788209,71.5627854 C24.2878893,71.8577999 24.6322191,72.0338983 25,72.0338983 C25.3677809,72.0338983 25.7121107,71.8577999 25.9211791,71.5627854 Z M24.9999998,9.55932203 C33.1438595,9.55932203 39.7457623,15.8741855 39.7457623,23.6639644 C39.7457623,31.4537433 33.1438595,37.7686068 24.9999998,37.7686068 C16.85614,37.7686068 10.2542373,31.4537433 10.2542373,23.6639644 C10.2634951,15.8778565 16.8599778,9.56817731 24.9999998,9.55932203 Z" id="path-1"></path>
                </g>
                <g id="path-1-link" fill="$mainColor">
                    <path d="M25.9211791,71.5627854 C26.9035672,70.1750635 50,37.4245728 50,24.375103 C49.9999998,10.9131053 38.8071186,1.29250393e-15 25,0 C11.1928814,-1.29250393e-15 2.05742101e-07,10.9131053 0,24.375103 C0,37.4245728 23.0964328,70.1750635 24.0788209,71.5627854 C24.2878893,71.8577999 24.6322191,72.0338983 25,72.0338983 C25.3677809,72.0338983 25.7121107,71.8577999 25.9211791,71.5627854 Z M24.9999998,9.55932203 C33.1438595,9.55932203 39.7457623,15.8741855 39.7457623,23.6639644 C39.7457623,31.4537433 33.1438595,37.7686068 24.9999998,37.7686068 C16.85614,37.7686068 10.2542373,31.4537433 10.2542373,23.6639644 C10.2634951,15.8778565 16.8599778,9.56817731 24.9999998,9.55932203 Z" id="path-1"></path>
                </g>
            </g>
            <circle id="Oval" fill="#FFFFFF" cx="25" cy="25" r="19"></circle>
        </g>
    </g>
</svg>